# xmcd
#
# Track frame offsets:
#	150
#	15155
#	35566
#	47983
#	67596
#	87298
#	99733
#	109699
#	127665
#	148417
#	164681
#	181469
#	194779
#	208111
#	226516
#
# Disc length: 3210 seconds
#
# Revision: 1
# Processed by: cddbd v1.5.2PL0 Copyright (c) Steve Scherf et al.
# Submitted via: audiograbber 1.83.01
#
DISCID=cc0c880f
DTITLE=Gustl - Gustl´s Oldie Mix
DYEAR=1900
DGENRE=
TTITLE0=Einsamer Hirte
TTITLE1=Blue Bajou
TTITLE2=Something Stupid
TTITLE3=I just called to say I love you
TTITLE4=Wonderful World
TTITLE5=Hallo Dolly
TTITLE6=Wildcat Blues
TTITLE7=Schiwago Melodie
TTITLE8=Mississippi
TTITLE9=Wenn es Nacht wird in Harlem
TTITLE10=Yesterday
TTITLE11=Sternenhimmel (Eigenkomposition)
TTITLE12=Over the Rainbow
TTITLE13=Fascination
TTITLE14=Morgens um sieben
EXTD=
EXTT0=
EXTT1=
EXTT2=
EXTT3=
EXTT4=
EXTT5=
EXTT6=
EXTT7=
EXTT8=
EXTT9=
EXTT10=
EXTT11=
EXTT12=
EXTT13=
EXTT14=
PLAYORDER=
